<mxfile host="Electron" modified="2023-05-23T01:34:11.247Z" agent="Mozilla/5.0 (Windows NT 10.0; Win64; x64) AppleWebKit/537.36 (KHTML, like Gecko) draw.io/21.2.8 Chrome/112.0.5615.165 Electron/24.2.0 Safari/537.36" etag="VE7mJf50WfgtRVwCBhxo" version="21.2.8" type="device">
  <diagram id="C5RBs43oDa-KdzZeNtuy" name="Page-1">
    <mxGraphModel dx="825" dy="472" grid="1" gridSize="10" guides="1" tooltips="1" connect="1" arrows="1" fold="1" page="1" pageScale="1" pageWidth="827" pageHeight="1169" math="0" shadow="0">
      <root>
        <mxCell id="WIyWlLk6GJQsqaUBKTNV-0" />
        <mxCell id="WIyWlLk6GJQsqaUBKTNV-1" parent="WIyWlLk6GJQsqaUBKTNV-0" />
        <mxCell id="mmg1BIXBUhttBEBEEIAe-1" value="&lt;h1&gt;Retornar la cantidad de digitos que tiene un nÃºmero N&lt;/h1&gt;" style="text;html=1;strokeColor=none;fillColor=none;spacing=5;spacingTop=-20;whiteSpace=wrap;overflow=hidden;rounded=0;" parent="WIyWlLk6GJQsqaUBKTNV-1" vertex="1">
          <mxGeometry x="50" y="30" width="650" height="50" as="geometry" />
        </mxCell>
        <mxCell id="mmg1BIXBUhttBEBEEIAe-2" value="&lt;h1&gt;&lt;div style=&quot;background-color: rgb(255, 255, 255); font-family: Consolas, &amp;quot;Courier New&amp;quot;, monospace; font-weight: normal; font-size: 19.6px; line-height: 26px;&quot;&gt;Dado A y B obtener el DIV&lt;/div&gt;&lt;/h1&gt;" style="text;html=1;strokeColor=none;fillColor=none;spacing=5;spacingTop=-20;whiteSpace=wrap;overflow=hidden;rounded=0;" parent="WIyWlLk6GJQsqaUBKTNV-1" vertex="1">
          <mxGeometry x="69" y="640" width="310" height="40" as="geometry" />
        </mxCell>
        <mxCell id="mmg1BIXBUhttBEBEEIAe-3" value="&lt;h1&gt;&lt;div style=&quot;background-color: rgb(255, 255, 255); font-family: Consolas, &amp;quot;Courier New&amp;quot;, monospace; font-weight: normal; font-size: 19.6px; line-height: 26px;&quot;&gt;Dado A y B obtener el MOD&lt;/div&gt;&lt;/h1&gt;" style="text;html=1;strokeColor=none;fillColor=none;spacing=5;spacingTop=-20;whiteSpace=wrap;overflow=hidden;rounded=0;" parent="WIyWlLk6GJQsqaUBKTNV-1" vertex="1">
          <mxGeometry x="449" y="650" width="310" height="40" as="geometry" />
        </mxCell>
        <mxCell id="mmg1BIXBUhttBEBEEIAe-9" style="edgeStyle=orthogonalEdgeStyle;rounded=0;orthogonalLoop=1;jettySize=auto;html=1;entryX=0.5;entryY=0;entryDx=0;entryDy=0;" parent="WIyWlLk6GJQsqaUBKTNV-1" source="mmg1BIXBUhttBEBEEIAe-4" target="mmg1BIXBUhttBEBEEIAe-6" edge="1">
          <mxGeometry relative="1" as="geometry" />
        </mxCell>
        <mxCell id="mmg1BIXBUhttBEBEEIAe-4" value="inicio" style="ellipse;whiteSpace=wrap;html=1;" parent="WIyWlLk6GJQsqaUBKTNV-1" vertex="1">
          <mxGeometry x="139" y="690" width="100" height="40" as="geometry" />
        </mxCell>
        <mxCell id="mmg1BIXBUhttBEBEEIAe-10" style="edgeStyle=orthogonalEdgeStyle;rounded=0;orthogonalLoop=1;jettySize=auto;html=1;" parent="WIyWlLk6GJQsqaUBKTNV-1" source="mmg1BIXBUhttBEBEEIAe-5" target="mmg1BIXBUhttBEBEEIAe-7" edge="1">
          <mxGeometry relative="1" as="geometry" />
        </mxCell>
        <mxCell id="mmg1BIXBUhttBEBEEIAe-5" value="inicio" style="ellipse;whiteSpace=wrap;html=1;" parent="WIyWlLk6GJQsqaUBKTNV-1" vertex="1">
          <mxGeometry x="549" y="690" width="100" height="40" as="geometry" />
        </mxCell>
        <mxCell id="mmg1BIXBUhttBEBEEIAe-14" style="edgeStyle=orthogonalEdgeStyle;rounded=0;orthogonalLoop=1;jettySize=auto;html=1;" parent="WIyWlLk6GJQsqaUBKTNV-1" source="mmg1BIXBUhttBEBEEIAe-6" target="mmg1BIXBUhttBEBEEIAe-11" edge="1">
          <mxGeometry relative="1" as="geometry" />
        </mxCell>
        <mxCell id="mmg1BIXBUhttBEBEEIAe-6" value="A, B" style="shape=parallelogram;perimeter=parallelogramPerimeter;whiteSpace=wrap;html=1;fixedSize=1;" parent="WIyWlLk6GJQsqaUBKTNV-1" vertex="1">
          <mxGeometry x="124" y="760" width="130" height="25" as="geometry" />
        </mxCell>
        <mxCell id="mmg1BIXBUhttBEBEEIAe-20" style="edgeStyle=orthogonalEdgeStyle;rounded=0;orthogonalLoop=1;jettySize=auto;html=1;" parent="WIyWlLk6GJQsqaUBKTNV-1" source="mmg1BIXBUhttBEBEEIAe-7" target="mmg1BIXBUhttBEBEEIAe-12" edge="1">
          <mxGeometry relative="1" as="geometry" />
        </mxCell>
        <mxCell id="mmg1BIXBUhttBEBEEIAe-7" value="A, B" style="shape=parallelogram;perimeter=parallelogramPerimeter;whiteSpace=wrap;html=1;fixedSize=1;" parent="WIyWlLk6GJQsqaUBKTNV-1" vertex="1">
          <mxGeometry x="534" y="760" width="130" height="25" as="geometry" />
        </mxCell>
        <mxCell id="mmg1BIXBUhttBEBEEIAe-15" style="edgeStyle=orthogonalEdgeStyle;rounded=0;orthogonalLoop=1;jettySize=auto;html=1;entryX=0.5;entryY=0;entryDx=0;entryDy=0;" parent="WIyWlLk6GJQsqaUBKTNV-1" source="mmg1BIXBUhttBEBEEIAe-11" target="mmg1BIXBUhttBEBEEIAe-13" edge="1">
          <mxGeometry relative="1" as="geometry" />
        </mxCell>
        <mxCell id="mmg1BIXBUhttBEBEEIAe-11" value="resultado = 0" style="rounded=0;whiteSpace=wrap;html=1;" parent="WIyWlLk6GJQsqaUBKTNV-1" vertex="1">
          <mxGeometry x="129" y="810" width="120" height="30" as="geometry" />
        </mxCell>
        <mxCell id="mmg1BIXBUhttBEBEEIAe-22" style="edgeStyle=orthogonalEdgeStyle;rounded=0;orthogonalLoop=1;jettySize=auto;html=1;entryX=0.5;entryY=0;entryDx=0;entryDy=0;" parent="WIyWlLk6GJQsqaUBKTNV-1" source="mmg1BIXBUhttBEBEEIAe-12" target="mmg1BIXBUhttBEBEEIAe-18" edge="1">
          <mxGeometry relative="1" as="geometry" />
        </mxCell>
        <mxCell id="mmg1BIXBUhttBEBEEIAe-12" value="resultado = 0" style="rounded=0;whiteSpace=wrap;html=1;" parent="WIyWlLk6GJQsqaUBKTNV-1" vertex="1">
          <mxGeometry x="539" y="810" width="120" height="30" as="geometry" />
        </mxCell>
        <mxCell id="mmg1BIXBUhttBEBEEIAe-17" style="edgeStyle=orthogonalEdgeStyle;rounded=0;orthogonalLoop=1;jettySize=auto;html=1;entryX=0.5;entryY=0;entryDx=0;entryDy=0;" parent="WIyWlLk6GJQsqaUBKTNV-1" source="mmg1BIXBUhttBEBEEIAe-13" target="mmg1BIXBUhttBEBEEIAe-16" edge="1">
          <mxGeometry relative="1" as="geometry" />
        </mxCell>
        <mxCell id="mmg1BIXBUhttBEBEEIAe-13" value="resultado = A / B" style="rounded=0;whiteSpace=wrap;html=1;" parent="WIyWlLk6GJQsqaUBKTNV-1" vertex="1">
          <mxGeometry x="129" y="870" width="120" height="60" as="geometry" />
        </mxCell>
        <mxCell id="mmg1BIXBUhttBEBEEIAe-25" style="edgeStyle=orthogonalEdgeStyle;rounded=0;orthogonalLoop=1;jettySize=auto;html=1;" parent="WIyWlLk6GJQsqaUBKTNV-1" source="mmg1BIXBUhttBEBEEIAe-16" target="mmg1BIXBUhttBEBEEIAe-23" edge="1">
          <mxGeometry relative="1" as="geometry" />
        </mxCell>
        <mxCell id="mmg1BIXBUhttBEBEEIAe-16" value="resultado" style="shape=document;whiteSpace=wrap;html=1;boundedLbl=1;" parent="WIyWlLk6GJQsqaUBKTNV-1" vertex="1">
          <mxGeometry x="129" y="960" width="120" height="80" as="geometry" />
        </mxCell>
        <mxCell id="mmg1BIXBUhttBEBEEIAe-21" style="edgeStyle=orthogonalEdgeStyle;rounded=0;orthogonalLoop=1;jettySize=auto;html=1;entryX=0.5;entryY=0;entryDx=0;entryDy=0;" parent="WIyWlLk6GJQsqaUBKTNV-1" source="mmg1BIXBUhttBEBEEIAe-18" target="mmg1BIXBUhttBEBEEIAe-19" edge="1">
          <mxGeometry relative="1" as="geometry" />
        </mxCell>
        <mxCell id="mmg1BIXBUhttBEBEEIAe-18" value="resultado = A % B" style="rounded=0;whiteSpace=wrap;html=1;" parent="WIyWlLk6GJQsqaUBKTNV-1" vertex="1">
          <mxGeometry x="539" y="870" width="120" height="60" as="geometry" />
        </mxCell>
        <mxCell id="mmg1BIXBUhttBEBEEIAe-26" style="edgeStyle=orthogonalEdgeStyle;rounded=0;orthogonalLoop=1;jettySize=auto;html=1;" parent="WIyWlLk6GJQsqaUBKTNV-1" source="mmg1BIXBUhttBEBEEIAe-19" target="mmg1BIXBUhttBEBEEIAe-24" edge="1">
          <mxGeometry relative="1" as="geometry" />
        </mxCell>
        <mxCell id="mmg1BIXBUhttBEBEEIAe-19" value="resultado" style="shape=document;whiteSpace=wrap;html=1;boundedLbl=1;" parent="WIyWlLk6GJQsqaUBKTNV-1" vertex="1">
          <mxGeometry x="539" y="960" width="120" height="80" as="geometry" />
        </mxCell>
        <mxCell id="mmg1BIXBUhttBEBEEIAe-23" value="Fin" style="ellipse;whiteSpace=wrap;html=1;" parent="WIyWlLk6GJQsqaUBKTNV-1" vertex="1">
          <mxGeometry x="156.5" y="1060" width="65" height="30" as="geometry" />
        </mxCell>
        <mxCell id="mmg1BIXBUhttBEBEEIAe-24" value="Fin" style="ellipse;whiteSpace=wrap;html=1;" parent="WIyWlLk6GJQsqaUBKTNV-1" vertex="1">
          <mxGeometry x="566.5" y="1060" width="65" height="30" as="geometry" />
        </mxCell>
        <mxCell id="mmg1BIXBUhttBEBEEIAe-31" style="edgeStyle=orthogonalEdgeStyle;rounded=0;orthogonalLoop=1;jettySize=auto;html=1;entryX=0.5;entryY=0;entryDx=0;entryDy=0;" parent="WIyWlLk6GJQsqaUBKTNV-1" source="mmg1BIXBUhttBEBEEIAe-28" target="mmg1BIXBUhttBEBEEIAe-29" edge="1">
          <mxGeometry relative="1" as="geometry" />
        </mxCell>
        <mxCell id="mmg1BIXBUhttBEBEEIAe-28" value="inicio" style="ellipse;whiteSpace=wrap;html=1;" parent="WIyWlLk6GJQsqaUBKTNV-1" vertex="1">
          <mxGeometry x="300" y="80" width="100" height="40" as="geometry" />
        </mxCell>
        <mxCell id="mmg1BIXBUhttBEBEEIAe-32" style="edgeStyle=orthogonalEdgeStyle;rounded=0;orthogonalLoop=1;jettySize=auto;html=1;entryX=0.5;entryY=0;entryDx=0;entryDy=0;" parent="WIyWlLk6GJQsqaUBKTNV-1" source="mmg1BIXBUhttBEBEEIAe-29" target="mmg1BIXBUhttBEBEEIAe-30" edge="1">
          <mxGeometry relative="1" as="geometry" />
        </mxCell>
        <mxCell id="mmg1BIXBUhttBEBEEIAe-29" value="N" style="shape=parallelogram;perimeter=parallelogramPerimeter;whiteSpace=wrap;html=1;fixedSize=1;" parent="WIyWlLk6GJQsqaUBKTNV-1" vertex="1">
          <mxGeometry x="285" y="140" width="130" height="25" as="geometry" />
        </mxCell>
        <mxCell id="mmg1BIXBUhttBEBEEIAe-34" style="edgeStyle=orthogonalEdgeStyle;rounded=0;orthogonalLoop=1;jettySize=auto;html=1;entryX=0.5;entryY=0;entryDx=0;entryDy=0;" parent="WIyWlLk6GJQsqaUBKTNV-1" source="mmg1BIXBUhttBEBEEIAe-30" target="mmg1BIXBUhttBEBEEIAe-33" edge="1">
          <mxGeometry relative="1" as="geometry" />
        </mxCell>
        <mxCell id="mmg1BIXBUhttBEBEEIAe-30" value="resp = 0, cantidad = 1" style="rounded=0;whiteSpace=wrap;html=1;" parent="WIyWlLk6GJQsqaUBKTNV-1" vertex="1">
          <mxGeometry x="290" y="180" width="120" height="30" as="geometry" />
        </mxCell>
        <mxCell id="mmg1BIXBUhttBEBEEIAe-36" style="edgeStyle=orthogonalEdgeStyle;rounded=0;orthogonalLoop=1;jettySize=auto;html=1;entryX=0.5;entryY=0;entryDx=0;entryDy=0;" parent="WIyWlLk6GJQsqaUBKTNV-1" source="mmg1BIXBUhttBEBEEIAe-33" target="mmg1BIXBUhttBEBEEIAe-35" edge="1">
          <mxGeometry relative="1" as="geometry" />
        </mxCell>
        <mxCell id="mmg1BIXBUhttBEBEEIAe-38" style="edgeStyle=orthogonalEdgeStyle;rounded=0;orthogonalLoop=1;jettySize=auto;html=1;entryX=0.5;entryY=0;entryDx=0;entryDy=0;" parent="WIyWlLk6GJQsqaUBKTNV-1" source="mmg1BIXBUhttBEBEEIAe-33" target="mmg1BIXBUhttBEBEEIAe-39" edge="1">
          <mxGeometry relative="1" as="geometry">
            <mxPoint x="350" y="420" as="targetPoint" />
            <Array as="points">
              <mxPoint x="460" y="255" />
              <mxPoint x="460" y="390" />
              <mxPoint x="350" y="390" />
            </Array>
          </mxGeometry>
        </mxCell>
        <mxCell id="mmg1BIXBUhttBEBEEIAe-33" value="N != 0" style="rhombus;whiteSpace=wrap;html=1;" parent="WIyWlLk6GJQsqaUBKTNV-1" vertex="1">
          <mxGeometry x="310" y="230" width="80" height="50" as="geometry" />
        </mxCell>
        <mxCell id="mmg1BIXBUhttBEBEEIAe-37" style="edgeStyle=orthogonalEdgeStyle;rounded=0;orthogonalLoop=1;jettySize=auto;html=1;entryX=0;entryY=0.5;entryDx=0;entryDy=0;" parent="WIyWlLk6GJQsqaUBKTNV-1" source="mmg1BIXBUhttBEBEEIAe-35" target="mmg1BIXBUhttBEBEEIAe-33" edge="1">
          <mxGeometry relative="1" as="geometry">
            <Array as="points">
              <mxPoint x="350" y="380" />
              <mxPoint x="255" y="380" />
              <mxPoint x="255" y="255" />
            </Array>
          </mxGeometry>
        </mxCell>
        <mxCell id="mmg1BIXBUhttBEBEEIAe-35" value="N = N / 10&lt;br&gt;cantidad = cantidad + 1" style="rounded=0;whiteSpace=wrap;html=1;" parent="WIyWlLk6GJQsqaUBKTNV-1" vertex="1">
          <mxGeometry x="275" y="300" width="150" height="60" as="geometry" />
        </mxCell>
        <mxCell id="mmg1BIXBUhttBEBEEIAe-41" style="edgeStyle=orthogonalEdgeStyle;rounded=0;orthogonalLoop=1;jettySize=auto;html=1;" parent="WIyWlLk6GJQsqaUBKTNV-1" source="mmg1BIXBUhttBEBEEIAe-39" target="mmg1BIXBUhttBEBEEIAe-40" edge="1">
          <mxGeometry relative="1" as="geometry" />
        </mxCell>
        <mxCell id="mmg1BIXBUhttBEBEEIAe-39" value="cantidad + &quot;digitos&quot;" style="shape=document;whiteSpace=wrap;html=1;boundedLbl=1;" parent="WIyWlLk6GJQsqaUBKTNV-1" vertex="1">
          <mxGeometry x="290" y="410" width="120" height="80" as="geometry" />
        </mxCell>
        <mxCell id="mmg1BIXBUhttBEBEEIAe-40" value="Fin" style="ellipse;whiteSpace=wrap;html=1;" parent="WIyWlLk6GJQsqaUBKTNV-1" vertex="1">
          <mxGeometry x="317.5" y="510" width="65" height="30" as="geometry" />
        </mxCell>
        <mxCell id="mmg1BIXBUhttBEBEEIAe-42" value="&lt;h1&gt;Mostrar los digitos que tiene un nÃºmero N&lt;/h1&gt;" style="text;html=1;strokeColor=none;fillColor=none;spacing=5;spacingTop=-20;whiteSpace=wrap;overflow=hidden;rounded=0;" parent="WIyWlLk6GJQsqaUBKTNV-1" vertex="1">
          <mxGeometry x="880" y="30" width="510" height="50" as="geometry" />
        </mxCell>
        <mxCell id="mmg1BIXBUhttBEBEEIAe-43" style="edgeStyle=orthogonalEdgeStyle;rounded=0;orthogonalLoop=1;jettySize=auto;html=1;entryX=0.5;entryY=0;entryDx=0;entryDy=0;" parent="WIyWlLk6GJQsqaUBKTNV-1" source="mmg1BIXBUhttBEBEEIAe-44" target="mmg1BIXBUhttBEBEEIAe-46" edge="1">
          <mxGeometry relative="1" as="geometry" />
        </mxCell>
        <mxCell id="mmg1BIXBUhttBEBEEIAe-44" value="inicio" style="ellipse;whiteSpace=wrap;html=1;" parent="WIyWlLk6GJQsqaUBKTNV-1" vertex="1">
          <mxGeometry x="1090" y="80" width="100" height="40" as="geometry" />
        </mxCell>
        <mxCell id="mmg1BIXBUhttBEBEEIAe-45" style="edgeStyle=orthogonalEdgeStyle;rounded=0;orthogonalLoop=1;jettySize=auto;html=1;entryX=0.5;entryY=0;entryDx=0;entryDy=0;" parent="WIyWlLk6GJQsqaUBKTNV-1" source="mmg1BIXBUhttBEBEEIAe-46" target="mmg1BIXBUhttBEBEEIAe-48" edge="1">
          <mxGeometry relative="1" as="geometry" />
        </mxCell>
        <mxCell id="mmg1BIXBUhttBEBEEIAe-46" value="N" style="shape=parallelogram;perimeter=parallelogramPerimeter;whiteSpace=wrap;html=1;fixedSize=1;" parent="WIyWlLk6GJQsqaUBKTNV-1" vertex="1">
          <mxGeometry x="1075" y="140" width="130" height="25" as="geometry" />
        </mxCell>
        <mxCell id="mmg1BIXBUhttBEBEEIAe-47" style="edgeStyle=orthogonalEdgeStyle;rounded=0;orthogonalLoop=1;jettySize=auto;html=1;entryX=0.5;entryY=0;entryDx=0;entryDy=0;" parent="WIyWlLk6GJQsqaUBKTNV-1" source="mmg1BIXBUhttBEBEEIAe-48" target="mmg1BIXBUhttBEBEEIAe-51" edge="1">
          <mxGeometry relative="1" as="geometry" />
        </mxCell>
        <mxCell id="mmg1BIXBUhttBEBEEIAe-48" value="dig = 0" style="rounded=0;whiteSpace=wrap;html=1;" parent="WIyWlLk6GJQsqaUBKTNV-1" vertex="1">
          <mxGeometry x="1080" y="180" width="120" height="30" as="geometry" />
        </mxCell>
        <mxCell id="mmg1BIXBUhttBEBEEIAe-49" style="edgeStyle=orthogonalEdgeStyle;rounded=0;orthogonalLoop=1;jettySize=auto;html=1;entryX=0.5;entryY=0;entryDx=0;entryDy=0;" parent="WIyWlLk6GJQsqaUBKTNV-1" source="mmg1BIXBUhttBEBEEIAe-51" target="mmg1BIXBUhttBEBEEIAe-53" edge="1">
          <mxGeometry relative="1" as="geometry" />
        </mxCell>
        <mxCell id="mmg1BIXBUhttBEBEEIAe-50" style="edgeStyle=orthogonalEdgeStyle;rounded=0;orthogonalLoop=1;jettySize=auto;html=1;entryX=0.5;entryY=0;entryDx=0;entryDy=0;exitX=1;exitY=0.5;exitDx=0;exitDy=0;" parent="WIyWlLk6GJQsqaUBKTNV-1" source="mmg1BIXBUhttBEBEEIAe-51" target="mmg1BIXBUhttBEBEEIAe-56" edge="1">
          <mxGeometry relative="1" as="geometry">
            <mxPoint x="1140" y="420" as="targetPoint" />
            <Array as="points">
              <mxPoint x="1250" y="255" />
              <mxPoint x="1250" y="450" />
              <mxPoint x="1140" y="450" />
              <mxPoint x="1140" y="460" />
            </Array>
          </mxGeometry>
        </mxCell>
        <mxCell id="mmg1BIXBUhttBEBEEIAe-51" value="N != 0" style="rhombus;whiteSpace=wrap;html=1;" parent="WIyWlLk6GJQsqaUBKTNV-1" vertex="1">
          <mxGeometry x="1100" y="230" width="80" height="50" as="geometry" />
        </mxCell>
        <mxCell id="mmg1BIXBUhttBEBEEIAe-52" style="edgeStyle=orthogonalEdgeStyle;rounded=0;orthogonalLoop=1;jettySize=auto;html=1;entryX=0;entryY=0.5;entryDx=0;entryDy=0;exitX=0.508;exitY=0.835;exitDx=0;exitDy=0;exitPerimeter=0;" parent="WIyWlLk6GJQsqaUBKTNV-1" source="mmg1BIXBUhttBEBEEIAe-59" target="mmg1BIXBUhttBEBEEIAe-51" edge="1">
          <mxGeometry relative="1" as="geometry">
            <Array as="points">
              <mxPoint x="1141" y="430" />
              <mxPoint x="1045" y="430" />
              <mxPoint x="1045" y="255" />
            </Array>
          </mxGeometry>
        </mxCell>
        <mxCell id="mmg1BIXBUhttBEBEEIAe-58" style="edgeStyle=orthogonalEdgeStyle;rounded=0;orthogonalLoop=1;jettySize=auto;html=1;entryX=0.5;entryY=0;entryDx=0;entryDy=0;" parent="WIyWlLk6GJQsqaUBKTNV-1" source="mmg1BIXBUhttBEBEEIAe-53" target="mmg1BIXBUhttBEBEEIAe-55" edge="1">
          <mxGeometry relative="1" as="geometry" />
        </mxCell>
        <mxCell id="mmg1BIXBUhttBEBEEIAe-53" value="dig = N % 10" style="rounded=0;whiteSpace=wrap;html=1;" parent="WIyWlLk6GJQsqaUBKTNV-1" vertex="1">
          <mxGeometry x="1065" y="300" width="150" height="20" as="geometry" />
        </mxCell>
        <mxCell id="mmg1BIXBUhttBEBEEIAe-56" value="Fin" style="ellipse;whiteSpace=wrap;html=1;" parent="WIyWlLk6GJQsqaUBKTNV-1" vertex="1">
          <mxGeometry x="1107.5" y="460" width="65" height="30" as="geometry" />
        </mxCell>
        <mxCell id="mmg1BIXBUhttBEBEEIAe-61" style="edgeStyle=orthogonalEdgeStyle;rounded=0;orthogonalLoop=1;jettySize=auto;html=1;" parent="WIyWlLk6GJQsqaUBKTNV-1" source="mmg1BIXBUhttBEBEEIAe-55" target="mmg1BIXBUhttBEBEEIAe-59" edge="1">
          <mxGeometry relative="1" as="geometry" />
        </mxCell>
        <mxCell id="mmg1BIXBUhttBEBEEIAe-55" value="dig" style="shape=document;whiteSpace=wrap;html=1;boundedLbl=1;" parent="WIyWlLk6GJQsqaUBKTNV-1" vertex="1">
          <mxGeometry x="1080" y="340" width="120" height="50" as="geometry" />
        </mxCell>
        <mxCell id="mmg1BIXBUhttBEBEEIAe-59" value="N = N / 10" style="rounded=0;whiteSpace=wrap;html=1;" parent="WIyWlLk6GJQsqaUBKTNV-1" vertex="1">
          <mxGeometry x="1065" y="400" width="150" height="20" as="geometry" />
        </mxCell>
        <mxCell id="mmg1BIXBUhttBEBEEIAe-62" value="&lt;h1&gt;Mostrar si existe el dig 3 en el nÃºmero N&lt;/h1&gt;" style="text;html=1;strokeColor=none;fillColor=none;spacing=5;spacingTop=-20;whiteSpace=wrap;overflow=hidden;rounded=0;" parent="WIyWlLk6GJQsqaUBKTNV-1" vertex="1">
          <mxGeometry x="1670" y="70" width="510" height="50" as="geometry" />
        </mxCell>
        <mxCell id="mmg1BIXBUhttBEBEEIAe-63" style="edgeStyle=orthogonalEdgeStyle;rounded=0;orthogonalLoop=1;jettySize=auto;html=1;entryX=0.5;entryY=0;entryDx=0;entryDy=0;" parent="WIyWlLk6GJQsqaUBKTNV-1" source="mmg1BIXBUhttBEBEEIAe-64" target="mmg1BIXBUhttBEBEEIAe-66" edge="1">
          <mxGeometry relative="1" as="geometry" />
        </mxCell>
        <mxCell id="mmg1BIXBUhttBEBEEIAe-64" value="inicio" style="ellipse;whiteSpace=wrap;html=1;" parent="WIyWlLk6GJQsqaUBKTNV-1" vertex="1">
          <mxGeometry x="1860" y="120" width="100" height="40" as="geometry" />
        </mxCell>
        <mxCell id="mmg1BIXBUhttBEBEEIAe-65" style="edgeStyle=orthogonalEdgeStyle;rounded=0;orthogonalLoop=1;jettySize=auto;html=1;entryX=0.5;entryY=0;entryDx=0;entryDy=0;" parent="WIyWlLk6GJQsqaUBKTNV-1" source="mmg1BIXBUhttBEBEEIAe-66" target="mmg1BIXBUhttBEBEEIAe-68" edge="1">
          <mxGeometry relative="1" as="geometry" />
        </mxCell>
        <mxCell id="mmg1BIXBUhttBEBEEIAe-66" value="N" style="shape=parallelogram;perimeter=parallelogramPerimeter;whiteSpace=wrap;html=1;fixedSize=1;" parent="WIyWlLk6GJQsqaUBKTNV-1" vertex="1">
          <mxGeometry x="1845" y="180" width="130" height="25" as="geometry" />
        </mxCell>
        <mxCell id="mmg1BIXBUhttBEBEEIAe-67" style="edgeStyle=orthogonalEdgeStyle;rounded=0;orthogonalLoop=1;jettySize=auto;html=1;entryX=0.5;entryY=0;entryDx=0;entryDy=0;" parent="WIyWlLk6GJQsqaUBKTNV-1" source="mmg1BIXBUhttBEBEEIAe-68" target="mmg1BIXBUhttBEBEEIAe-71" edge="1">
          <mxGeometry relative="1" as="geometry" />
        </mxCell>
        <mxCell id="mmg1BIXBUhttBEBEEIAe-68" value="dig = 0" style="rounded=0;whiteSpace=wrap;html=1;" parent="WIyWlLk6GJQsqaUBKTNV-1" vertex="1">
          <mxGeometry x="1850" y="220" width="120" height="30" as="geometry" />
        </mxCell>
        <mxCell id="mmg1BIXBUhttBEBEEIAe-69" style="edgeStyle=orthogonalEdgeStyle;rounded=0;orthogonalLoop=1;jettySize=auto;html=1;entryX=0.5;entryY=0;entryDx=0;entryDy=0;" parent="WIyWlLk6GJQsqaUBKTNV-1" source="mmg1BIXBUhttBEBEEIAe-71" target="mmg1BIXBUhttBEBEEIAe-74" edge="1">
          <mxGeometry relative="1" as="geometry" />
        </mxCell>
        <mxCell id="mmg1BIXBUhttBEBEEIAe-70" style="edgeStyle=orthogonalEdgeStyle;rounded=0;orthogonalLoop=1;jettySize=auto;html=1;entryX=0.5;entryY=0;entryDx=0;entryDy=0;exitX=1;exitY=0.5;exitDx=0;exitDy=0;" parent="WIyWlLk6GJQsqaUBKTNV-1" source="mmg1BIXBUhttBEBEEIAe-71" target="mmg1BIXBUhttBEBEEIAe-75" edge="1">
          <mxGeometry relative="1" as="geometry">
            <mxPoint x="1910" y="460" as="targetPoint" />
            <Array as="points">
              <mxPoint x="2110" y="295" />
              <mxPoint x="2110" y="540" />
              <mxPoint x="1918" y="540" />
            </Array>
          </mxGeometry>
        </mxCell>
        <mxCell id="mmg1BIXBUhttBEBEEIAe-71" value="N != 0" style="rhombus;whiteSpace=wrap;html=1;" parent="WIyWlLk6GJQsqaUBKTNV-1" vertex="1">
          <mxGeometry x="1870" y="270" width="80" height="50" as="geometry" />
        </mxCell>
        <mxCell id="mmg1BIXBUhttBEBEEIAe-72" style="edgeStyle=orthogonalEdgeStyle;rounded=0;orthogonalLoop=1;jettySize=auto;html=1;entryX=0;entryY=0.5;entryDx=0;entryDy=0;exitX=0.508;exitY=0.835;exitDx=0;exitDy=0;exitPerimeter=0;" parent="WIyWlLk6GJQsqaUBKTNV-1" source="mmg1BIXBUhttBEBEEIAe-78" target="mmg1BIXBUhttBEBEEIAe-71" edge="1">
          <mxGeometry relative="1" as="geometry">
            <Array as="points">
              <mxPoint x="1926" y="530" />
              <mxPoint x="1815" y="530" />
              <mxPoint x="1815" y="295" />
            </Array>
          </mxGeometry>
        </mxCell>
        <mxCell id="mmg1BIXBUhttBEBEEIAe-83" style="edgeStyle=orthogonalEdgeStyle;rounded=0;orthogonalLoop=1;jettySize=auto;html=1;" parent="WIyWlLk6GJQsqaUBKTNV-1" source="mmg1BIXBUhttBEBEEIAe-74" target="mmg1BIXBUhttBEBEEIAe-79" edge="1">
          <mxGeometry relative="1" as="geometry" />
        </mxCell>
        <mxCell id="mmg1BIXBUhttBEBEEIAe-74" value="dig = N % 10" style="rounded=0;whiteSpace=wrap;html=1;" parent="WIyWlLk6GJQsqaUBKTNV-1" vertex="1">
          <mxGeometry x="1835" y="340" width="150" height="20" as="geometry" />
        </mxCell>
        <mxCell id="mmg1BIXBUhttBEBEEIAe-75" value="Fin" style="ellipse;whiteSpace=wrap;html=1;" parent="WIyWlLk6GJQsqaUBKTNV-1" vertex="1">
          <mxGeometry x="1885" y="570" width="65" height="30" as="geometry" />
        </mxCell>
        <mxCell id="mmg1BIXBUhttBEBEEIAe-82" style="edgeStyle=orthogonalEdgeStyle;rounded=0;orthogonalLoop=1;jettySize=auto;html=1;entryX=0.5;entryY=0;entryDx=0;entryDy=0;" parent="WIyWlLk6GJQsqaUBKTNV-1" source="mmg1BIXBUhttBEBEEIAe-77" target="mmg1BIXBUhttBEBEEIAe-78" edge="1">
          <mxGeometry relative="1" as="geometry">
            <Array as="points">
              <mxPoint x="2008" y="470" />
              <mxPoint x="1925" y="470" />
            </Array>
          </mxGeometry>
        </mxCell>
        <mxCell id="mmg1BIXBUhttBEBEEIAe-77" value="Existe el dig 3" style="shape=document;whiteSpace=wrap;html=1;boundedLbl=1;" parent="WIyWlLk6GJQsqaUBKTNV-1" vertex="1">
          <mxGeometry x="1948" y="415" width="120" height="50" as="geometry" />
        </mxCell>
        <mxCell id="mmg1BIXBUhttBEBEEIAe-78" value="N = N / 10" style="rounded=0;whiteSpace=wrap;html=1;" parent="WIyWlLk6GJQsqaUBKTNV-1" vertex="1">
          <mxGeometry x="1850" y="490" width="150" height="20" as="geometry" />
        </mxCell>
        <mxCell id="mmg1BIXBUhttBEBEEIAe-80" style="edgeStyle=orthogonalEdgeStyle;rounded=0;orthogonalLoop=1;jettySize=auto;html=1;entryX=0.5;entryY=0;entryDx=0;entryDy=0;" parent="WIyWlLk6GJQsqaUBKTNV-1" source="mmg1BIXBUhttBEBEEIAe-79" target="mmg1BIXBUhttBEBEEIAe-77" edge="1">
          <mxGeometry relative="1" as="geometry">
            <mxPoint x="1990" y="430" as="targetPoint" />
            <Array as="points">
              <mxPoint x="2008" y="395" />
            </Array>
          </mxGeometry>
        </mxCell>
        <mxCell id="mmg1BIXBUhttBEBEEIAe-81" style="edgeStyle=orthogonalEdgeStyle;rounded=0;orthogonalLoop=1;jettySize=auto;html=1;entryX=0.5;entryY=0;entryDx=0;entryDy=0;" parent="WIyWlLk6GJQsqaUBKTNV-1" source="mmg1BIXBUhttBEBEEIAe-79" target="mmg1BIXBUhttBEBEEIAe-78" edge="1">
          <mxGeometry relative="1" as="geometry">
            <Array as="points">
              <mxPoint x="1840" y="395" />
              <mxPoint x="1840" y="442" />
              <mxPoint x="1925" y="442" />
            </Array>
          </mxGeometry>
        </mxCell>
        <mxCell id="mmg1BIXBUhttBEBEEIAe-79" value="dig == 3" style="rhombus;whiteSpace=wrap;html=1;" parent="WIyWlLk6GJQsqaUBKTNV-1" vertex="1">
          <mxGeometry x="1870" y="370" width="80" height="50" as="geometry" />
        </mxCell>
        <mxCell id="-9q6YZgamufEiggggLQV-0" value="&lt;h1&gt;Mostrar si existe el dig 3 en el nÃºmero N&lt;/h1&gt;" style="text;html=1;strokeColor=none;fillColor=none;spacing=5;spacingTop=-20;whiteSpace=wrap;overflow=hidden;rounded=0;" parent="WIyWlLk6GJQsqaUBKTNV-1" vertex="1">
          <mxGeometry x="1700" y="710" width="510" height="50" as="geometry" />
        </mxCell>
        <mxCell id="-9q6YZgamufEiggggLQV-1" style="edgeStyle=orthogonalEdgeStyle;rounded=0;orthogonalLoop=1;jettySize=auto;html=1;entryX=0.5;entryY=0;entryDx=0;entryDy=0;" parent="WIyWlLk6GJQsqaUBKTNV-1" source="-9q6YZgamufEiggggLQV-2" target="-9q6YZgamufEiggggLQV-4" edge="1">
          <mxGeometry relative="1" as="geometry" />
        </mxCell>
        <mxCell id="-9q6YZgamufEiggggLQV-2" value="inicio" style="ellipse;whiteSpace=wrap;html=1;" parent="WIyWlLk6GJQsqaUBKTNV-1" vertex="1">
          <mxGeometry x="1890" y="760" width="100" height="40" as="geometry" />
        </mxCell>
        <mxCell id="-9q6YZgamufEiggggLQV-3" style="edgeStyle=orthogonalEdgeStyle;rounded=0;orthogonalLoop=1;jettySize=auto;html=1;entryX=0.5;entryY=0;entryDx=0;entryDy=0;" parent="WIyWlLk6GJQsqaUBKTNV-1" source="-9q6YZgamufEiggggLQV-4" target="-9q6YZgamufEiggggLQV-6" edge="1">
          <mxGeometry relative="1" as="geometry" />
        </mxCell>
        <mxCell id="-9q6YZgamufEiggggLQV-4" value="N" style="shape=parallelogram;perimeter=parallelogramPerimeter;whiteSpace=wrap;html=1;fixedSize=1;" parent="WIyWlLk6GJQsqaUBKTNV-1" vertex="1">
          <mxGeometry x="1875" y="820" width="130" height="25" as="geometry" />
        </mxCell>
        <mxCell id="-9q6YZgamufEiggggLQV-5" style="edgeStyle=orthogonalEdgeStyle;rounded=0;orthogonalLoop=1;jettySize=auto;html=1;entryX=0.5;entryY=0;entryDx=0;entryDy=0;" parent="WIyWlLk6GJQsqaUBKTNV-1" source="-9q6YZgamufEiggggLQV-6" target="-9q6YZgamufEiggggLQV-9" edge="1">
          <mxGeometry relative="1" as="geometry" />
        </mxCell>
        <mxCell id="-9q6YZgamufEiggggLQV-6" value="dig = 0" style="rounded=0;whiteSpace=wrap;html=1;" parent="WIyWlLk6GJQsqaUBKTNV-1" vertex="1">
          <mxGeometry x="1880" y="860" width="120" height="30" as="geometry" />
        </mxCell>
        <mxCell id="-9q6YZgamufEiggggLQV-7" style="edgeStyle=orthogonalEdgeStyle;rounded=0;orthogonalLoop=1;jettySize=auto;html=1;entryX=0.5;entryY=0;entryDx=0;entryDy=0;" parent="WIyWlLk6GJQsqaUBKTNV-1" source="-9q6YZgamufEiggggLQV-9" target="-9q6YZgamufEiggggLQV-12" edge="1">
          <mxGeometry relative="1" as="geometry" />
        </mxCell>
        <mxCell id="-9q6YZgamufEiggggLQV-8" style="edgeStyle=orthogonalEdgeStyle;rounded=0;orthogonalLoop=1;jettySize=auto;html=1;entryX=0.5;entryY=0;entryDx=0;entryDy=0;exitX=1;exitY=0.5;exitDx=0;exitDy=0;" parent="WIyWlLk6GJQsqaUBKTNV-1" source="-9q6YZgamufEiggggLQV-9" target="-9q6YZgamufEiggggLQV-13" edge="1">
          <mxGeometry relative="1" as="geometry">
            <mxPoint x="1940" y="1100" as="targetPoint" />
            <Array as="points">
              <mxPoint x="2140" y="935" />
              <mxPoint x="2140" y="1180" />
              <mxPoint x="1948" y="1180" />
            </Array>
          </mxGeometry>
        </mxCell>
        <mxCell id="-9q6YZgamufEiggggLQV-9" value="N != 0" style="rhombus;whiteSpace=wrap;html=1;" parent="WIyWlLk6GJQsqaUBKTNV-1" vertex="1">
          <mxGeometry x="1900" y="910" width="80" height="50" as="geometry" />
        </mxCell>
        <mxCell id="-9q6YZgamufEiggggLQV-10" style="edgeStyle=orthogonalEdgeStyle;rounded=0;orthogonalLoop=1;jettySize=auto;html=1;entryX=0;entryY=0.5;entryDx=0;entryDy=0;exitX=0.508;exitY=0.835;exitDx=0;exitDy=0;exitPerimeter=0;" parent="WIyWlLk6GJQsqaUBKTNV-1" source="-9q6YZgamufEiggggLQV-16" target="-9q6YZgamufEiggggLQV-9" edge="1">
          <mxGeometry relative="1" as="geometry">
            <Array as="points">
              <mxPoint x="1956" y="1170" />
              <mxPoint x="1845" y="1170" />
              <mxPoint x="1845" y="935" />
            </Array>
          </mxGeometry>
        </mxCell>
        <mxCell id="-9q6YZgamufEiggggLQV-11" style="edgeStyle=orthogonalEdgeStyle;rounded=0;orthogonalLoop=1;jettySize=auto;html=1;" parent="WIyWlLk6GJQsqaUBKTNV-1" source="-9q6YZgamufEiggggLQV-12" target="-9q6YZgamufEiggggLQV-19" edge="1">
          <mxGeometry relative="1" as="geometry" />
        </mxCell>
        <mxCell id="-9q6YZgamufEiggggLQV-12" value="dig = N % 10" style="rounded=0;whiteSpace=wrap;html=1;" parent="WIyWlLk6GJQsqaUBKTNV-1" vertex="1">
          <mxGeometry x="1865" y="980" width="150" height="20" as="geometry" />
        </mxCell>
        <mxCell id="-9q6YZgamufEiggggLQV-13" value="Fin" style="ellipse;whiteSpace=wrap;html=1;" parent="WIyWlLk6GJQsqaUBKTNV-1" vertex="1">
          <mxGeometry x="1915" y="1210" width="65" height="30" as="geometry" />
        </mxCell>
        <mxCell id="-9q6YZgamufEiggggLQV-14" style="edgeStyle=orthogonalEdgeStyle;rounded=0;orthogonalLoop=1;jettySize=auto;html=1;entryX=0.5;entryY=0;entryDx=0;entryDy=0;" parent="WIyWlLk6GJQsqaUBKTNV-1" source="-9q6YZgamufEiggggLQV-15" target="-9q6YZgamufEiggggLQV-16" edge="1">
          <mxGeometry relative="1" as="geometry">
            <Array as="points">
              <mxPoint x="2038" y="1110" />
              <mxPoint x="1955" y="1110" />
            </Array>
          </mxGeometry>
        </mxCell>
        <mxCell id="-9q6YZgamufEiggggLQV-15" value="Existe el dig 3" style="shape=document;whiteSpace=wrap;html=1;boundedLbl=1;" parent="WIyWlLk6GJQsqaUBKTNV-1" vertex="1">
          <mxGeometry x="1978" y="1055" width="120" height="50" as="geometry" />
        </mxCell>
        <mxCell id="-9q6YZgamufEiggggLQV-16" value="N = N / 10" style="rounded=0;whiteSpace=wrap;html=1;" parent="WIyWlLk6GJQsqaUBKTNV-1" vertex="1">
          <mxGeometry x="1880" y="1130" width="150" height="20" as="geometry" />
        </mxCell>
        <mxCell id="-9q6YZgamufEiggggLQV-17" style="edgeStyle=orthogonalEdgeStyle;rounded=0;orthogonalLoop=1;jettySize=auto;html=1;entryX=0.5;entryY=0;entryDx=0;entryDy=0;" parent="WIyWlLk6GJQsqaUBKTNV-1" source="-9q6YZgamufEiggggLQV-19" target="-9q6YZgamufEiggggLQV-15" edge="1">
          <mxGeometry relative="1" as="geometry">
            <mxPoint x="2020" y="1070" as="targetPoint" />
            <Array as="points">
              <mxPoint x="2038" y="1035" />
            </Array>
          </mxGeometry>
        </mxCell>
        <mxCell id="-9q6YZgamufEiggggLQV-18" style="edgeStyle=orthogonalEdgeStyle;rounded=0;orthogonalLoop=1;jettySize=auto;html=1;entryX=0.5;entryY=0;entryDx=0;entryDy=0;" parent="WIyWlLk6GJQsqaUBKTNV-1" source="-9q6YZgamufEiggggLQV-19" target="-9q6YZgamufEiggggLQV-16" edge="1">
          <mxGeometry relative="1" as="geometry">
            <Array as="points">
              <mxPoint x="1870" y="1035" />
              <mxPoint x="1870" y="1082" />
              <mxPoint x="1955" y="1082" />
            </Array>
          </mxGeometry>
        </mxCell>
        <mxCell id="-9q6YZgamufEiggggLQV-19" value="dig == 3" style="rhombus;whiteSpace=wrap;html=1;" parent="WIyWlLk6GJQsqaUBKTNV-1" vertex="1">
          <mxGeometry x="1900" y="1010" width="80" height="50" as="geometry" />
        </mxCell>
        <mxCell id="pToJInJnxCc1Xp67Dity-0" value="&lt;h1&gt;Sumar los dig multiplos de 3 de un nro N&lt;/h1&gt;" style="text;html=1;strokeColor=none;fillColor=none;spacing=5;spacingTop=-20;whiteSpace=wrap;overflow=hidden;rounded=0;" vertex="1" parent="WIyWlLk6GJQsqaUBKTNV-1">
          <mxGeometry x="2460" y="75" width="510" height="50" as="geometry" />
        </mxCell>
        <mxCell id="pToJInJnxCc1Xp67Dity-21" style="edgeStyle=orthogonalEdgeStyle;rounded=0;orthogonalLoop=1;jettySize=auto;html=1;entryX=0.5;entryY=0;entryDx=0;entryDy=0;" edge="1" parent="WIyWlLk6GJQsqaUBKTNV-1" source="pToJInJnxCc1Xp67Dity-1" target="pToJInJnxCc1Xp67Dity-2">
          <mxGeometry relative="1" as="geometry" />
        </mxCell>
        <mxCell id="pToJInJnxCc1Xp67Dity-1" value="inicio" style="ellipse;whiteSpace=wrap;html=1;" vertex="1" parent="WIyWlLk6GJQsqaUBKTNV-1">
          <mxGeometry x="2635" y="125" width="100" height="40" as="geometry" />
        </mxCell>
        <mxCell id="pToJInJnxCc1Xp67Dity-19" style="edgeStyle=orthogonalEdgeStyle;rounded=0;orthogonalLoop=1;jettySize=auto;html=1;entryX=0.5;entryY=0;entryDx=0;entryDy=0;" edge="1" parent="WIyWlLk6GJQsqaUBKTNV-1" source="pToJInJnxCc1Xp67Dity-2" target="pToJInJnxCc1Xp67Dity-3">
          <mxGeometry relative="1" as="geometry" />
        </mxCell>
        <mxCell id="pToJInJnxCc1Xp67Dity-2" value="N" style="shape=parallelogram;perimeter=parallelogramPerimeter;whiteSpace=wrap;html=1;fixedSize=1;" vertex="1" parent="WIyWlLk6GJQsqaUBKTNV-1">
          <mxGeometry x="2620" y="185" width="130" height="25" as="geometry" />
        </mxCell>
        <mxCell id="pToJInJnxCc1Xp67Dity-20" style="edgeStyle=orthogonalEdgeStyle;rounded=0;orthogonalLoop=1;jettySize=auto;html=1;" edge="1" parent="WIyWlLk6GJQsqaUBKTNV-1" source="pToJInJnxCc1Xp67Dity-3" target="pToJInJnxCc1Xp67Dity-4">
          <mxGeometry relative="1" as="geometry" />
        </mxCell>
        <mxCell id="pToJInJnxCc1Xp67Dity-3" value="sum = 0, dig = 0" style="rounded=0;whiteSpace=wrap;html=1;" vertex="1" parent="WIyWlLk6GJQsqaUBKTNV-1">
          <mxGeometry x="2595" y="240" width="180" height="30" as="geometry" />
        </mxCell>
        <mxCell id="pToJInJnxCc1Xp67Dity-15" style="edgeStyle=orthogonalEdgeStyle;rounded=0;orthogonalLoop=1;jettySize=auto;html=1;entryX=0.5;entryY=0;entryDx=0;entryDy=0;" edge="1" parent="WIyWlLk6GJQsqaUBKTNV-1" source="pToJInJnxCc1Xp67Dity-4" target="pToJInJnxCc1Xp67Dity-6">
          <mxGeometry relative="1" as="geometry" />
        </mxCell>
        <mxCell id="pToJInJnxCc1Xp67Dity-17" style="edgeStyle=orthogonalEdgeStyle;rounded=0;orthogonalLoop=1;jettySize=auto;html=1;entryX=0.5;entryY=0;entryDx=0;entryDy=0;exitX=1;exitY=0.5;exitDx=0;exitDy=0;" edge="1" parent="WIyWlLk6GJQsqaUBKTNV-1" source="pToJInJnxCc1Xp67Dity-4" target="pToJInJnxCc1Xp67Dity-18">
          <mxGeometry relative="1" as="geometry">
            <mxPoint x="2685" y="671.1428571428571" as="targetPoint" />
            <Array as="points">
              <mxPoint x="2860" y="330" />
              <mxPoint x="2860" y="650" />
              <mxPoint x="2685" y="650" />
            </Array>
          </mxGeometry>
        </mxCell>
        <mxCell id="pToJInJnxCc1Xp67Dity-4" value="N != 0" style="rhombus;whiteSpace=wrap;html=1;" vertex="1" parent="WIyWlLk6GJQsqaUBKTNV-1">
          <mxGeometry x="2625" y="300" width="120" height="60" as="geometry" />
        </mxCell>
        <mxCell id="pToJInJnxCc1Xp67Dity-5" value="while" style="text;html=1;strokeColor=none;fillColor=none;align=center;verticalAlign=middle;whiteSpace=wrap;rounded=0;" vertex="1" parent="WIyWlLk6GJQsqaUBKTNV-1">
          <mxGeometry x="2600" y="295" width="60" height="30" as="geometry" />
        </mxCell>
        <mxCell id="pToJInJnxCc1Xp67Dity-14" style="edgeStyle=orthogonalEdgeStyle;rounded=0;orthogonalLoop=1;jettySize=auto;html=1;entryX=0.5;entryY=0;entryDx=0;entryDy=0;" edge="1" parent="WIyWlLk6GJQsqaUBKTNV-1" source="pToJInJnxCc1Xp67Dity-6" target="pToJInJnxCc1Xp67Dity-7">
          <mxGeometry relative="1" as="geometry" />
        </mxCell>
        <mxCell id="pToJInJnxCc1Xp67Dity-6" value="dig = N % 10" style="rounded=0;whiteSpace=wrap;html=1;" vertex="1" parent="WIyWlLk6GJQsqaUBKTNV-1">
          <mxGeometry x="2625" y="380" width="120" height="30" as="geometry" />
        </mxCell>
        <mxCell id="pToJInJnxCc1Xp67Dity-11" style="edgeStyle=orthogonalEdgeStyle;rounded=0;orthogonalLoop=1;jettySize=auto;html=1;entryX=0.5;entryY=0;entryDx=0;entryDy=0;exitX=0;exitY=0.5;exitDx=0;exitDy=0;" edge="1" parent="WIyWlLk6GJQsqaUBKTNV-1" source="pToJInJnxCc1Xp67Dity-7" target="pToJInJnxCc1Xp67Dity-10">
          <mxGeometry relative="1" as="geometry">
            <Array as="points">
              <mxPoint x="2590" y="475" />
              <mxPoint x="2590" y="545" />
              <mxPoint x="2685" y="545" />
            </Array>
          </mxGeometry>
        </mxCell>
        <mxCell id="pToJInJnxCc1Xp67Dity-12" style="edgeStyle=orthogonalEdgeStyle;rounded=0;orthogonalLoop=1;jettySize=auto;html=1;entryX=0.5;entryY=0;entryDx=0;entryDy=0;exitX=1;exitY=0.5;exitDx=0;exitDy=0;" edge="1" parent="WIyWlLk6GJQsqaUBKTNV-1" source="pToJInJnxCc1Xp67Dity-7" target="pToJInJnxCc1Xp67Dity-9">
          <mxGeometry relative="1" as="geometry" />
        </mxCell>
        <mxCell id="pToJInJnxCc1Xp67Dity-7" value="dig % 3 == 0" style="rhombus;whiteSpace=wrap;html=1;" vertex="1" parent="WIyWlLk6GJQsqaUBKTNV-1">
          <mxGeometry x="2635" y="445" width="100" height="60" as="geometry" />
        </mxCell>
        <mxCell id="pToJInJnxCc1Xp67Dity-8" value="if" style="text;html=1;strokeColor=none;fillColor=none;align=center;verticalAlign=middle;whiteSpace=wrap;rounded=0;" vertex="1" parent="WIyWlLk6GJQsqaUBKTNV-1">
          <mxGeometry x="2610" y="425" width="60" height="30" as="geometry" />
        </mxCell>
        <mxCell id="pToJInJnxCc1Xp67Dity-13" style="edgeStyle=orthogonalEdgeStyle;rounded=0;orthogonalLoop=1;jettySize=auto;html=1;entryX=0.5;entryY=0;entryDx=0;entryDy=0;" edge="1" parent="WIyWlLk6GJQsqaUBKTNV-1" source="pToJInJnxCc1Xp67Dity-9" target="pToJInJnxCc1Xp67Dity-10">
          <mxGeometry relative="1" as="geometry">
            <Array as="points">
              <mxPoint x="2788" y="570" />
              <mxPoint x="2685" y="570" />
            </Array>
          </mxGeometry>
        </mxCell>
        <mxCell id="pToJInJnxCc1Xp67Dity-9" value="sum = sum + dig" style="rounded=0;whiteSpace=wrap;html=1;" vertex="1" parent="WIyWlLk6GJQsqaUBKTNV-1">
          <mxGeometry x="2735" y="525" width="105" height="25" as="geometry" />
        </mxCell>
        <mxCell id="pToJInJnxCc1Xp67Dity-16" style="edgeStyle=orthogonalEdgeStyle;rounded=0;orthogonalLoop=1;jettySize=auto;html=1;entryX=0;entryY=0.5;entryDx=0;entryDy=0;" edge="1" parent="WIyWlLk6GJQsqaUBKTNV-1" source="pToJInJnxCc1Xp67Dity-10" target="pToJInJnxCc1Xp67Dity-4">
          <mxGeometry relative="1" as="geometry">
            <Array as="points">
              <mxPoint x="2685" y="630" />
              <mxPoint x="2560" y="630" />
              <mxPoint x="2560" y="330" />
            </Array>
          </mxGeometry>
        </mxCell>
        <mxCell id="pToJInJnxCc1Xp67Dity-10" value="N = N / 10" style="rounded=0;whiteSpace=wrap;html=1;" vertex="1" parent="WIyWlLk6GJQsqaUBKTNV-1">
          <mxGeometry x="2625" y="585" width="120" height="25" as="geometry" />
        </mxCell>
        <mxCell id="pToJInJnxCc1Xp67Dity-23" style="edgeStyle=orthogonalEdgeStyle;rounded=0;orthogonalLoop=1;jettySize=auto;html=1;entryX=0.5;entryY=0;entryDx=0;entryDy=0;" edge="1" parent="WIyWlLk6GJQsqaUBKTNV-1" source="pToJInJnxCc1Xp67Dity-18" target="pToJInJnxCc1Xp67Dity-22">
          <mxGeometry relative="1" as="geometry" />
        </mxCell>
        <mxCell id="pToJInJnxCc1Xp67Dity-18" value="sum" style="shape=document;whiteSpace=wrap;html=1;boundedLbl=1;" vertex="1" parent="WIyWlLk6GJQsqaUBKTNV-1">
          <mxGeometry x="2642.5" y="670" width="85" height="30" as="geometry" />
        </mxCell>
        <mxCell id="pToJInJnxCc1Xp67Dity-22" value="fin" style="ellipse;whiteSpace=wrap;html=1;" vertex="1" parent="WIyWlLk6GJQsqaUBKTNV-1">
          <mxGeometry x="2635" y="720" width="100" height="40" as="geometry" />
        </mxCell>
        <mxCell id="pToJInJnxCc1Xp67Dity-24" value="&lt;h1&gt;Sumar los nros entre A y B incluido A y B&amp;nbsp;&lt;/h1&gt;" style="text;html=1;strokeColor=none;fillColor=none;spacing=5;spacingTop=-20;whiteSpace=wrap;overflow=hidden;rounded=0;" vertex="1" parent="WIyWlLk6GJQsqaUBKTNV-1">
          <mxGeometry x="3090" y="75" width="490" height="50" as="geometry" />
        </mxCell>
        <mxCell id="pToJInJnxCc1Xp67Dity-34" style="edgeStyle=orthogonalEdgeStyle;rounded=0;orthogonalLoop=1;jettySize=auto;html=1;entryX=0.5;entryY=0;entryDx=0;entryDy=0;" edge="1" parent="WIyWlLk6GJQsqaUBKTNV-1" source="pToJInJnxCc1Xp67Dity-25" target="pToJInJnxCc1Xp67Dity-26">
          <mxGeometry relative="1" as="geometry" />
        </mxCell>
        <mxCell id="pToJInJnxCc1Xp67Dity-25" value="inicio" style="ellipse;whiteSpace=wrap;html=1;" vertex="1" parent="WIyWlLk6GJQsqaUBKTNV-1">
          <mxGeometry x="3265" y="120" width="100" height="40" as="geometry" />
        </mxCell>
        <mxCell id="pToJInJnxCc1Xp67Dity-35" style="edgeStyle=orthogonalEdgeStyle;rounded=0;orthogonalLoop=1;jettySize=auto;html=1;" edge="1" parent="WIyWlLk6GJQsqaUBKTNV-1" source="pToJInJnxCc1Xp67Dity-26" target="pToJInJnxCc1Xp67Dity-27">
          <mxGeometry relative="1" as="geometry" />
        </mxCell>
        <mxCell id="pToJInJnxCc1Xp67Dity-26" value="A, B" style="shape=parallelogram;perimeter=parallelogramPerimeter;whiteSpace=wrap;html=1;fixedSize=1;" vertex="1" parent="WIyWlLk6GJQsqaUBKTNV-1">
          <mxGeometry x="3250" y="185" width="130" height="25" as="geometry" />
        </mxCell>
        <mxCell id="pToJInJnxCc1Xp67Dity-36" style="edgeStyle=orthogonalEdgeStyle;rounded=0;orthogonalLoop=1;jettySize=auto;html=1;entryX=0.5;entryY=0;entryDx=0;entryDy=0;" edge="1" parent="WIyWlLk6GJQsqaUBKTNV-1" source="pToJInJnxCc1Xp67Dity-27" target="pToJInJnxCc1Xp67Dity-28">
          <mxGeometry relative="1" as="geometry" />
        </mxCell>
        <mxCell id="pToJInJnxCc1Xp67Dity-27" value="suma = 0" style="rounded=0;whiteSpace=wrap;html=1;" vertex="1" parent="WIyWlLk6GJQsqaUBKTNV-1">
          <mxGeometry x="3225" y="240" width="180" height="30" as="geometry" />
        </mxCell>
        <mxCell id="pToJInJnxCc1Xp67Dity-31" style="edgeStyle=orthogonalEdgeStyle;rounded=0;orthogonalLoop=1;jettySize=auto;html=1;entryX=0.5;entryY=0;entryDx=0;entryDy=0;" edge="1" parent="WIyWlLk6GJQsqaUBKTNV-1" source="pToJInJnxCc1Xp67Dity-28" target="pToJInJnxCc1Xp67Dity-29">
          <mxGeometry relative="1" as="geometry" />
        </mxCell>
        <mxCell id="pToJInJnxCc1Xp67Dity-32" style="edgeStyle=orthogonalEdgeStyle;rounded=0;orthogonalLoop=1;jettySize=auto;html=1;exitX=1;exitY=0.5;exitDx=0;exitDy=0;entryX=0.561;entryY=0.086;entryDx=0;entryDy=0;entryPerimeter=0;" edge="1" parent="WIyWlLk6GJQsqaUBKTNV-1" source="pToJInJnxCc1Xp67Dity-28" target="pToJInJnxCc1Xp67Dity-37">
          <mxGeometry relative="1" as="geometry">
            <mxPoint x="3315" y="481.14285714285717" as="targetPoint" />
            <Array as="points">
              <mxPoint x="3440" y="330" />
              <mxPoint x="3440" y="450" />
              <mxPoint x="3320" y="450" />
            </Array>
          </mxGeometry>
        </mxCell>
        <mxCell id="pToJInJnxCc1Xp67Dity-28" value="B &amp;gt;= A" style="rhombus;whiteSpace=wrap;html=1;" vertex="1" parent="WIyWlLk6GJQsqaUBKTNV-1">
          <mxGeometry x="3255" y="300" width="120" height="60" as="geometry" />
        </mxCell>
        <mxCell id="pToJInJnxCc1Xp67Dity-30" style="edgeStyle=orthogonalEdgeStyle;rounded=0;orthogonalLoop=1;jettySize=auto;html=1;entryX=0;entryY=0.5;entryDx=0;entryDy=0;exitX=0.5;exitY=1;exitDx=0;exitDy=0;" edge="1" parent="WIyWlLk6GJQsqaUBKTNV-1" source="pToJInJnxCc1Xp67Dity-29" target="pToJInJnxCc1Xp67Dity-28">
          <mxGeometry relative="1" as="geometry">
            <Array as="points">
              <mxPoint x="3315" y="440" />
              <mxPoint x="3215" y="440" />
              <mxPoint x="3215" y="330" />
            </Array>
          </mxGeometry>
        </mxCell>
        <mxCell id="pToJInJnxCc1Xp67Dity-29" value="suma =&amp;nbsp; suma + A&lt;br&gt;A = A + 1" style="rounded=0;whiteSpace=wrap;html=1;" vertex="1" parent="WIyWlLk6GJQsqaUBKTNV-1">
          <mxGeometry x="3225" y="380" width="180" height="40" as="geometry" />
        </mxCell>
        <mxCell id="pToJInJnxCc1Xp67Dity-33" value="while" style="text;html=1;strokeColor=none;fillColor=none;align=center;verticalAlign=middle;whiteSpace=wrap;rounded=0;" vertex="1" parent="WIyWlLk6GJQsqaUBKTNV-1">
          <mxGeometry x="3205" y="295" width="60" height="30" as="geometry" />
        </mxCell>
        <mxCell id="pToJInJnxCc1Xp67Dity-39" style="edgeStyle=orthogonalEdgeStyle;rounded=0;orthogonalLoop=1;jettySize=auto;html=1;entryX=0.5;entryY=0;entryDx=0;entryDy=0;" edge="1" parent="WIyWlLk6GJQsqaUBKTNV-1" source="pToJInJnxCc1Xp67Dity-37" target="pToJInJnxCc1Xp67Dity-38">
          <mxGeometry relative="1" as="geometry" />
        </mxCell>
        <mxCell id="pToJInJnxCc1Xp67Dity-37" value="sum" style="shape=document;whiteSpace=wrap;html=1;boundedLbl=1;" vertex="1" parent="WIyWlLk6GJQsqaUBKTNV-1">
          <mxGeometry x="3272.5" y="460" width="85" height="30" as="geometry" />
        </mxCell>
        <mxCell id="pToJInJnxCc1Xp67Dity-38" value="fin" style="ellipse;whiteSpace=wrap;html=1;" vertex="1" parent="WIyWlLk6GJQsqaUBKTNV-1">
          <mxGeometry x="3265" y="517.5" width="100" height="40" as="geometry" />
        </mxCell>
      </root>
    </mxGraphModel>
  </diagram>
</mxfile>
